Coordinates
version=1
nRows=20
nColumns=38
inDegrees=no

Units are S.I. units (second, meters, Newtons, ...)
If the header above contains a line with 'inDegrees', this indicates whether rotational values are in degrees (yes) or radians (no).

endheader
time	pelvis_tilt	pelvis_list	pelvis_rotation	pelvis_tx	pelvis_ty	pelvis_tz	hip_flexion_r	hip_adduction_r	hip_rotation_r	knee_angle_r	ankle_angle_r	subtalar_angle_r	mtp_angle_r	hip_flexion_l	hip_adduction_l	hip_rotation_l	knee_angle_l	ankle_angle_l	subtalar_angle_l	mtp_angle_l	lumbar_extension	lumbar_bending	lumbar_rotation	arm_flex_r	arm_add_r	arm_rot_r	elbow_flex_r	pro_sup_r	wrist_flex_r	wrist_dev_r	arm_flex_l	arm_add_l	arm_rot_l	elbow_flex_l	pro_sup_l	wrist_flex_l	wrist_dev_l
0.78	-2.78707	1.46324	-1.89044	0.699516	0.0724211	0.940214	0.298682	-0.229919	-0.144126	1.24835	-0.0391092	0	0	-0.020177	0.0608789	-0.209164	0.214601	0.109849	0	0	-0.186688	-0.0551674	-0.122422	-0.0415769	-0.302756	0.419561	0.633813	1.3485	0	0	-0.131357	-0.374848	0.316201	0.739057	0.94966	0	0
0.79	-2.87404	1.46518	-1.79925	0.696699	0.0805738	0.941301	0.312696	-0.233407	-0.14968	1.22621	-0.0137543	0	0	-0.0353607	0.0562761	-0.201656	0.205175	0.110277	0	0	-0.187687	-0.0416409	-0.130053	-0.0425943	-0.304276	0.412902	0.640698	1.34274	0	0	-0.129558	-0.3753	0.306338	0.745212	0.950223	0	0
0.8	-2.94054	1.46573	-1.72785	0.695292	0.0886021	0.942373	0.324407	-0.225462	-0.160561	1.20155	0.00280653	0	0	-0.0512661	0.0504917	-0.197263	0.194628	0.112394	0	0	-0.189314	-0.0326242	-0.137994	-0.043945	-0.304159	0.406721	0.648666	1.33505	0	0	-0.127732	-0.377663	0.295576	0.751623	0.950692	0	0
0.81	-3.00538	1.46545	-1.65847	0.693977	0.0966462	0.943365	0.334093	-0.21789	-0.172414	1.17274	0.0188189	0	0	-0.0677278	0.0448501	-0.192541	0.183584	0.114143	0	0	-0.191248	-0.0238962	-0.145278	-0.0451274	-0.304226	0.401352	0.656552	1.32859	0	0	-0.1255	-0.38012	0.285767	0.757862	0.949161	0	0
0.82	-3.06486	1.46436	-1.59482	0.692675	0.104722	0.944235	0.341888	-0.211243	-0.185452	1.1399	0.0326162	0	0	-0.0844992	0.039646	-0.187394	0.172526	0.115788	0	0	-0.193613	-0.0156448	-0.152078	-0.046054	-0.304075	0.395032	0.664113	1.32355	0	0	-0.12291	-0.382779	0.277123	0.764098	0.946111	0	0
0.83	-3.11719	1.46265	-1.53846	0.691425	0.112698	0.944984	0.347776	-0.205643	-0.199844	1.10306	0.0422529	0	0	-0.101349	0.0349095	-0.182177	0.161729	0.117729	0	0	-0.196405	-0.00798166	-0.158669	-0.0465422	-0.303831	0.388783	0.671232	1.32045	0	0	-0.120086	-0.385537	0.268996	0.770446	0.943222	0	0
0.84	3.12212	1.46103	-1.49158	0.690283	0.120664	0.94552	0.35281	-0.200678	-0.214443	1.06286	0.0476933	0	0	-0.117832	0.0309528	-0.177959	0.150989	0.119972	0	0	-0.198911	-0.00121012	-0.163774	-0.0472786	-0.303731	0.382181	0.678563	1.31761	0	0	-0.116396	-0.388254	0.262301	0.775862	0.93996	0	0
0.85	3.08729	1.45962	-1.4546	0.689252	0.128596	0.945853	0.357087	-0.196614	-0.229458	1.02009	0.0514147	0	0	-0.134224	0.0279388	-0.173819	0.140025	0.122004	0	0	-0.201052	0.00444903	-0.167765	-0.047886	-0.303716	0.376763	0.685376	1.31659	0	0	-0.112119	-0.391068	0.256921	0.780497	0.93671	0	0
0.86	3.06066	1.4585	-1.42621	0.688299	0.136522	0.945973	0.360483	-0.193467	-0.245631	0.974851	0.0551974	0	0	-0.150404	0.0258521	-0.169398	0.128916	0.124053	0	0	-0.202996	0.0091447	-0.171255	-0.0482431	-0.303555	0.371714	0.691829	1.3159	0	0	-0.107592	-0.394044	0.252414	0.784844	0.933661	0	0
0.87	3.04083	1.45775	-1.40467	0.687454	0.144493	0.945879	0.362882	-0.19098	-0.263483	0.927168	0.0588739	0	0	-0.166123	0.0245629	-0.164819	0.117916	0.126291	0	0	-0.204758	0.0130449	-0.174572	-0.0484486	-0.303313	0.366958	0.69808	1.31473	0	0	-0.102819	-0.397089	0.248615	0.788974	0.931037	0	0
0.88	3.02543	1.45747	-1.3877	0.686628	0.152305	0.945576	0.364449	-0.18859	-0.282356	0.877184	0.0620717	0	0	-0.181101	0.0237478	-0.16039	0.107442	0.128797	0	0	-0.206329	0.0163848	-0.177669	-0.0483517	-0.303136	0.362986	0.703736	1.31703	0	0	-0.097678	-0.400252	0.245729	0.792854	0.928443	0	0
0.89	3.01334	1.45765	-1.37434	0.686032	0.160187	0.945043	0.365489	-0.185863	-0.301854	0.825159	0.0650362	0	0	-0.19525	0.0232664	-0.156413	0.0976418	0.131909	0	0	-0.207647	0.0191695	-0.180154	-0.047987	-0.303017	0.359863	0.708983	1.31965	0	0	-0.0922852	-0.403409	0.243385	0.796567	0.926214	0	0
0.9	3.00399	1.45842	-1.36415	0.685492	0.167996	0.944326	0.366163	-0.182355	-0.32219	0.771147	0.0687616	0	0	-0.208427	0.0229591	-0.153399	0.0887709	0.135674	0	0	-0.20855	0.0213917	-0.181861	-0.0475703	-0.302592	0.356725	0.71361	1.32147	0	0	-0.086627	-0.406636	0.242402	0.799726	0.925739	0	0
0.91	2.9981	1.45984	-1.35786	0.685147	0.175811	0.943411	0.366948	-0.17802	-0.342587	0.715729	0.0736636	0	0	-0.220596	0.022997	-0.15129	0.0807417	0.139847	0	0	-0.209046	0.0228843	-0.182956	-0.0471073	-0.301761	0.353498	0.717527	1.32447	0	0	-0.0809218	-0.40986	0.241417	0.802831	0.92604	0	0
0.92	2.99609	1.46206	-1.35615	0.68499	0.18361	0.942292	0.368212	-0.172518	-0.361633	0.658996	0.0794451	0	0	-0.231786	0.0235304	-0.150118	0.0731989	0.14418	0	0	-0.208998	0.0235123	-0.183204	-0.0463357	-0.300567	0.350983	0.720306	1.32776	0	0	-0.0752776	-0.412863	0.239688	0.805941	0.927505	0	0
0.93	3.01771	1.46562	-1.37301	0.685758	0.19114	0.940938	0.372573	-0.158138	-0.369569	0.603232	0.0785134	0	0	-0.241901	0.0210424	-0.155869	0.064737	0.152213	0	0	-0.20851	0.0199987	-0.185679	-0.0467585	-0.297441	0.349562	0.721548	1.33152	0	0	-0.0680715	-0.417439	0.238299	0.808323	0.930773	0	0
0.94	3.02253	1.47076	-1.38044	0.686006	0.1988	0.939335	0.377242	-0.151694	-0.380838	0.546058	0.0854772	0	0	-0.249023	0.0227077	-0.157779	0.0595443	0.157878	0	0	-0.205994	0.0189377	-0.183182	-0.045151	-0.295806	0.348518	0.721311	1.33453	0	0	-0.062181	-0.419811	0.237083	0.810054	0.933569	0	0
0.95	3.02644	1.47659	-1.38795	0.686462	0.20638	0.937597	0.382262	-0.143368	-0.387894	0.487978	0.0919777	0	0	-0.255134	0.0243437	-0.160253	0.0549512	0.163911	0	0	-0.203143	0.0177573	-0.179513	-0.0428613	-0.29426	0.348688	0.72009	1.33694	0	0	-0.0559761	-0.421806	0.236196	0.811408	0.936285	0	0
0.96	3.02751	1.48279	-1.3932	0.687097	0.213962	0.935763	0.386949	-0.132984	-0.389471	0.429214	0.0977965	0	0	-0.260471	0.0256099	-0.163436	0.0511228	0.170511	0	0	-0.200024	0.0167657	-0.175102	-0.0401978	-0.292469	0.349096	0.71775	1.33909	0	0	-0.0497813	-0.4234	0.23511	0.812017	0.939865	0	0
0.97	3.0232	1.48918	-1.39329	0.687861	0.22163	0.933869	0.390498	-0.120596	-0.385718	0.369283	0.102102	0	0	-0.265233	0.0262812	-0.167506	0.0481628	0.177661	0	0	-0.196595	0.0163074	-0.170355	-0.0372872	-0.29058	0.34998	0.714086	1.34126	0	0	-0.04395	-0.424355	0.233537	0.811842	0.944164	0	0
